<?xml version="1.0" encoding="UTF-8"?>
<svg xmlns="http://www.w3.org/2000/svg" xmlns:xlink="http://www.w3.org/1999/xlink" viewBox="0 0 520.77 670.65">
  <defs>
    <style>
      .cls-1 {
        isolation: isolate;
      }

      .cls-2 {
        fill: url(#linear-gradient);
      }

      .cls-2, .cls-3, .cls-4, .cls-5, .cls-6 {
        stroke: #3cffcd;
        stroke-miterlimit: 10;
      }

      .cls-2, .cls-4, .cls-5, .cls-6 {
        mix-blend-mode: multiply;
        opacity: .5;
      }

      .cls-3 {
        fill: #0fe;
      }

      .cls-4 {
        fill: url(#linear-gradient-3);
      }

      .cls-5 {
        fill: url(#linear-gradient-2);
      }

      .cls-6 {
        fill: url(#linear-gradient-4);
      }
    </style>
    <linearGradient id="linear-gradient" x1="377.12" y1="588.91" x2="253.13" y2="571.33" gradientUnits="userSpaceOnUse">
      <stop offset="0" stop-color="#002f75"/>
      <stop offset="1" stop-color="#fff"/>
    </linearGradient>
    <linearGradient id="linear-gradient-2" x1="159.84" y1="66.22" x2="286.4" y2="105.53" xlink:href="#linear-gradient"/>
    <linearGradient id="linear-gradient-3" x1="57.46" y1="109.76" x2="43.07" y2="253.59" xlink:href="#linear-gradient"/>
    <linearGradient id="linear-gradient-4" x1="465.91" y1="528.8" x2="470.02" y2="371.19" xlink:href="#linear-gradient"/>
  </defs>
  <g class="cls-1">
    <g id="graphics">
      <g>
        <path class="cls-3" d="M438.89,308.43c-39.42-24.69-92.9-43.01-168.29-57.67-82.04-15.95-133.71-40.75-153.57-73.73-10.94-18.17-12.49-39.4-4.74-64.92,1.17-3.85,2.72-7.61,4.65-11.26,25.45-12.96,55.75-19.57,85.91-19.57,73.57,0,147.81,37.97,147.81,122.79v19.18h134.79v-19.18c0-57.13-19.71-106.22-57-141.97-32.02-30.7-75.75-50.9-126.44-58.43-47.89-7.11-97.14-2.15-138.68,13.96-32.58,12.64-57.78,31.35-73.51,54.14-5.21,3.04-10.24,6.29-15.04,9.77-18.94,13.74-33.81,30.41-44.19,49.55-11.26,20.77-16.97,43.97-16.97,68.97,0,28.62,7.74,55.2,23.01,79.02,13.59,21.19,33.25,40.3,58.45,56.78,41.56,27.18,99.84,47.99,168.52,60.16,104.29,18.48,157.17,66.98,157.17,144.16,0,4.58-.55,8.94-1.52,13.08-30.09,18.15-67.67,27.41-105.04,27.41-45.45,0-87.14-13.64-117.4-38.41-33.97-27.81-51.93-68.88-51.93-118.78v-19.18H.5v19.18c0,80.39,29.17,146.13,84.37,190.12,45.76,36.47,107.75,56.55,174.55,56.55,50.67,0,98.7-11.66,135.25-32.83,27.53-15.95,46.85-36.47,56.78-59.71.91-.65,1.82-1.3,2.72-1.97,20.47-15.18,36.54-33.46,47.78-54.36,12.16-22.62,18.33-47.72,18.33-74.62,0-57.91-27.38-104.41-81.38-138.23ZM296.36,41.6c33.55,4.98,139.12,29.74,149.84,143.29h-58.24c-4.61-42.13-24.67-77.5-58.7-103.08-30.89-23.21-71.67-36.76-115.76-38.65,26.53-5.02,55.29-5.65,82.86-1.56ZM259.41,631.8c-58.15,0-111.65-17.12-150.65-48.19-42.02-33.49-65.28-80.84-69.29-140.95h67.8c4.28,53.25,26.61,97.66,65.23,129.28,37.09,30.37,87.41,47.09,141.69,47.09,11.41,0,22.68-.73,33.73-2.15-26.18,9.62-57.06,14.93-88.52,14.93ZM458.02,519.12c-4.64-43.76-24.08-79.89-58-107.58-31.45-25.67-75.1-43.6-129.74-53.28h0c-63.63-11.27-116.96-30.12-154.22-54.49-42.53-27.82-64.1-62.71-64.1-103.7,0-22.52,6.34-41.93,17.15-58.17,0,19.86,5.02,38.23,15.06,54.91,26.06,43.27,84.64,73.23,179.1,91.59,70.62,13.73,119.96,30.42,155.26,52.52,42.65,26.71,63.38,61.29,63.38,105.72,0,28.65-8.96,52.85-23.9,72.47Z"/>
        <path class="cls-2" d="M347.95,616.86c9.91-3.64,19.15-7.9,27.48-12.73,17.64-10.22,38.15-26.87,43.81-50.88-30.09,18.15-67.67,27.42-105.04,27.42-45.45,0-87.14-13.64-117.4-38.41l-24.29,29.68c37.09,30.37,87.41,47.09,141.69,47.09,11.42,0,22.7-.73,33.75-2.16Z"/>
        <path class="cls-5" d="M202.84,81.28c37.38,0,74.92,9.8,102.82,30.56l23.6-30.03c-30.89-23.21-71.67-36.76-115.76-38.65-12.75,2.41-24.98,5.83-36.31,10.22-29,11.25-49.93,27.84-60.25,47.46,25.45-12.96,55.75-19.57,85.91-19.57Z"/>
        <path class="cls-4" d="M77.09,269.54c-16.7-20.62-25.13-43.85-25.13-69.47,0-22.52,6.34-41.93,17.15-58.17,0-13.02,2.15-26.68,6.48-40.94,3.13-10.3,7.92-20.08,14.21-29.2-5.21,3.04-10.24,6.29-15.04,9.77-18.94,13.74-33.81,30.41-44.19,49.55-11.26,20.77-16.97,43.97-16.97,68.97,0,28.62,7.74,55.2,23.01,79.02l40.47-9.55Z"/>
        <path class="cls-6" d="M438.89,308.43l-20.35,32.5c42.65,26.71,63.38,61.29,63.38,105.72,0,28.65-8.95,52.85-23.9,72.47.72,6.84,1.1,13.85,1.1,21.06,0,13.01-2.62,25.55-7.66,37.39.9-.64,1.82-1.28,2.71-1.94,20.47-15.18,36.54-33.46,47.78-54.36,12.16-22.62,18.33-47.72,18.33-74.62,0-57.91-27.38-104.41-81.38-138.23Z"/>
      </g>
    </g>
  </g>
</svg>